<svg width="196" height="292" viewBox="0 0 196 292" fill="none" xmlns="http://www.w3.org/2000/svg">
<rect width="200" height="250" rx="25" transform="matrix(0.978148 0.207912 0 1 0.370483 0)" fill="url(#paint0_linear_15_88)"/>
<rect width="32" height="32" rx="5" transform="matrix(0.978148 0.207912 0 1 10.152 208.079)" fill="url(#paint1_linear_15_88)"/>
<rect width="110" height="6" rx="3" transform="matrix(0.978148 0.207912 0 1 46.3434 215.772)" fill="url(#paint2_linear_15_88)"/>
<path d="M46.3434 227.272C46.3434 225.891 47.4382 225.005 48.7888 225.292L92.8054 234.648C94.1559 234.935 95.2508 236.287 95.2508 237.667C95.2508 239.048 94.1559 239.935 92.8054 239.648L48.7888 230.292C47.4382 230.005 46.3434 228.653 46.3434 227.272Z" fill="url(#paint3_linear_15_88)"/>
<path d="M46.3434 234.272C46.3434 232.891 47.4382 232.005 48.7888 232.292L119.215 247.261C120.566 247.548 121.661 248.9 121.661 250.281C121.661 251.662 120.566 252.548 119.215 252.261L48.7888 237.292C47.4382 237.005 46.3434 235.653 46.3434 234.272Z" fill="url(#paint4_linear_15_88)"/>
<rect width="32" height="32" rx="5" transform="matrix(0.978148 0.207912 0 1 10.152 124.079)" fill="#B7F82A"/>
<rect width="94" height="6" rx="3" transform="matrix(0.978148 0.207912 0 1 46.3434 131.772)" fill="#D7A31D"/>
<rect width="74" height="5" rx="2.5" transform="matrix(0.978148 0.207912 0 1 46.3434 140.772)" fill="#AFAFAF"/>
<rect width="66" height="5" rx="2.5" transform="matrix(0.978148 0.207912 0 1 46.3434 147.772)" fill="#AFAFAF"/>
<rect width="32" height="32" rx="5" transform="matrix(0.978148 0.207912 0 1 10.152 166.079)" fill="#C1360A"/>
<rect width="74" height="6" rx="3" transform="matrix(0.978148 0.207912 0 1 46.3434 173.772)" fill="#D7A31D"/>
<rect width="85" height="5" rx="2.5" transform="matrix(0.978148 0.207912 0 1 46.3434 182.772)" fill="#AFAFAF"/>
<rect width="97" height="5" rx="2.5" transform="matrix(0.978148 0.207912 0 1 46.3434 189.772)" fill="#AFAFAF"/>
<rect width="32" height="32" rx="5" transform="matrix(0.978148 0.207912 0 1 10.152 82.0791)" fill="#D5A600"/>
<rect width="56" height="6" rx="3" transform="matrix(0.978148 0.207912 0 1 46.3434 89.7719)" fill="#D7A31D"/>
<rect width="87" height="5" rx="2.5" transform="matrix(0.978148 0.207912 0 1 46.3434 98.7719)" fill="#AFAFAF"/>
<rect width="36" height="5" rx="2.5" transform="matrix(0.978148 0.207912 0 1 46.3434 105.772)" fill="#AFAFAF"/>
<rect width="32" height="32" rx="5" transform="matrix(0.978148 0.207912 0 1 10.152 40.0791)" fill="#941451"/>
<rect width="110" height="6" rx="3" transform="matrix(0.978148 0.207912 0 1 46.3434 47.7719)" fill="#D7A31D"/>
<rect width="50" height="5" rx="2.5" transform="matrix(0.978148 0.207912 0 1 46.3434 56.7719)" fill="#AFAFAF"/>
<path d="M46.3434 66.2719C46.3434 64.8911 47.4382 64.0046 48.7888 64.2916L119.215 79.2613C120.566 79.5483 121.661 80.9003 121.661 82.281C121.661 83.6618 120.566 84.5483 119.215 84.2613L48.7888 69.2916C47.4382 69.0046 46.3434 67.6526 46.3434 66.2719Z" fill="#AFAFAF"/>
<path d="M25.8024 29.4057C25.8024 28.3011 26.6782 27.5919 27.7587 27.8215L82.5349 39.4646C83.6154 39.6942 84.4912 40.7758 84.4912 41.8804C84.4912 42.985 83.6154 43.6942 82.5349 43.4646L27.7587 31.8215C26.6782 31.5919 25.8024 30.5103 25.8024 29.4057Z" fill="#AFAFAF"/>
<rect width="50" height="7" rx="3.5" transform="matrix(0.978148 0.207912 0 1 25.8024 18.4057)" fill="#D9D9D9"/>
<defs>
<linearGradient id="paint0_linear_15_88" x1="0" y1="0" x2="200" y2="250" gradientUnits="userSpaceOnUse">
<stop offset="0.12" stop-color="#2CC9A7"/>
<stop offset="1" stop-color="#001D37"/>
</linearGradient>
<linearGradient id="paint1_linear_15_88" x1="16" y1="0" x2="16" y2="32" gradientUnits="userSpaceOnUse">
<stop stop-color="#14AE5C"/>
<stop offset="1" stop-color="#14AE5C" stop-opacity="0.2"/>
</linearGradient>
<linearGradient id="paint2_linear_15_88" x1="55" y1="0" x2="55" y2="6" gradientUnits="userSpaceOnUse">
<stop stop-color="#D7A31D"/>
<stop offset="1" stop-color="#D7A31D" stop-opacity="0.6"/>
</linearGradient>
<linearGradient id="paint3_linear_15_88" x1="70.7683" y1="229.963" x2="69.6761" y2="235.237" gradientUnits="userSpaceOnUse">
<stop stop-color="#AFAFAF"/>
<stop offset="1" stop-color="#AFAFAF" stop-opacity="0.7"/>
</linearGradient>
<linearGradient id="paint4_linear_15_88" x1="83.513" y1="239.672" x2="82.3945" y2="244.935" gradientUnits="userSpaceOnUse">
<stop stop-color="#AFAFAF" stop-opacity="0.7"/>
<stop offset="1" stop-color="#AFAFAF" stop-opacity="0.2"/>
</linearGradient>
</defs>
</svg>
