<svg width="1440" height="65" viewBox="0 0 1440 65" fill="none" xmlns="http://www.w3.org/2000/svg">
<mask id="mask0_368_378" style="mask-type:luminance" maskUnits="userSpaceOnUse" x="0" y="0" width="1440" height="65">
<path d="M1440 0.582336H0V64.5823H1440V0.582336Z" fill="white"/>
</mask>
<g mask="url(#mask0_368_378)">
<path d="M2 33H0V65H2V33Z" fill="#D2E7FA"/>
<path d="M0 64.5823H1630V64.0823V63.5823H0V64.5823Z" fill="white"/>
<path d="M0 64.5823H1630V64.0823V63.5823H0V64.5823Z" fill="#D2E7FA"/>
<path d="M203 63.582C125.59 20.993 86.1557 16.8061 1 32.5V63.582H203Z" fill="#D2E7FA"/>
<path d="M411.031 27.4458C330.726 -0.804136 145.59 16.614 104 53.5444V63.5823H1440V30.4572C1440 30.4572 1339.5 12.2359 1310.46 30.6316C1281.41 49.0273 1182.65 23.4108 1166.62 12.8909C1150.59 2.37091 1065.43 0.203384 986.83 27.0027C920.382 42.7074 848.16 45.7189 828.704 33.4686C809.248 21.2182 716.218 10.1599 640.613 27.4458C565.008 44.7318 501.016 45.4533 411.031 27.4458Z" fill="white"/>
<path d="M411.031 27.4458C330.726 -0.804136 145.59 16.614 104 53.5444V63.5823H1440V30.4572C1440 30.4572 1339.5 12.2359 1310.46 30.6316C1281.41 49.0273 1182.65 23.4108 1166.62 12.8909C1150.59 2.37091 1065.43 0.203384 986.83 27.0027C920.382 42.7074 848.16 45.7189 828.704 33.4686C809.248 21.2182 716.218 10.1599 640.613 27.4458C565.008 44.7318 501.016 45.4533 411.031 27.4458Z" fill="#D2E7FA"/>
</g>
<mask id="mask1_368_378" style="mask-type:luminance" maskUnits="userSpaceOnUse" x="0" y="0" width="1440" height="65">
<path d="M1440 0.582336H0V64.5823H1440V0.582336Z" fill="white"/>
</mask>
<g mask="url(#mask1_368_378)">
<path d="M2 30.5H0V65H2V30.5Z" fill="#D2E7FA"/>
<path d="M0 64.5823H1630V64.0823V63.5823H0V64.5823Z" fill="white"/>
<path d="M0 64.5823H1630V64.0823V63.5823H0V64.5823Z" fill="#D2E7FA"/>
<path d="M203 63.582C125.59 20.993 86.1557 14.8061 1 30.5V63.582H203Z" fill="#D2E7FA"/>
<path d="M411.031 27.4458C330.726 -0.804136 145.59 16.614 104 53.5444V63.5823H1440V30.4572C1440 30.4572 1339.5 12.2359 1310.46 30.6316C1281.41 49.0273 1182.65 23.4108 1166.62 12.8909C1150.59 2.37091 1065.43 0.203384 986.83 27.0027C920.382 42.7074 848.16 45.7189 828.704 33.4686C809.248 21.2182 716.218 10.1599 640.613 27.4458C565.008 44.7318 501.016 45.4533 411.031 27.4458Z" fill="white"/>
<path d="M411.031 27.4458C330.726 -0.804136 145.59 16.614 104 53.5444V63.5823H1440V30.4572C1440 30.4572 1339.5 12.2359 1310.46 30.6316C1281.41 49.0273 1182.65 23.4108 1166.62 12.8909C1150.59 2.37091 1065.43 0.203384 986.83 27.0027C920.382 42.7074 848.16 45.7189 828.704 33.4686C809.248 21.2182 716.218 10.1599 640.613 27.4458C565.008 44.7318 501.016 45.4533 411.031 27.4458Z" fill="#D2E7FA"/>
</g>
</svg>
