<svg width="1440" height="65" viewBox="0 0 1440 65" fill="none" xmlns="http://www.w3.org/2000/svg">
<mask id="mask0_369_445" style="mask-type:luminance" maskUnits="userSpaceOnUse" x="0" y="0" width="1440" height="65">
<path d="M0 64.5823H1440V0.582275H0V64.5823Z" fill="white"/>
</mask>
<g mask="url(#mask0_369_445)">
<path d="M1438 39.5823H1440V0.582275H1438V39.5823Z" fill="white"/>
<path d="M1438 39.5823H1440V0.582275H1438V39.5823Z" fill="#D2E7FA"/>
<path d="M1440 0.582336H-190V1.08234V1.58234H1440V0.582336Z" fill="white"/>
<path d="M1440 0.582336H-190V1.08234V1.58234H1440V0.582336Z" fill="#D2E7FA"/>
<path d="M1237 1.5827C1314.41 44.1717 1353.84 55.2766 1439 39.5827V1.5827H1237Z" fill="white"/>
<path d="M1237 1.5827C1314.41 44.1717 1353.84 55.2766 1439 39.5827V1.5827H1237Z" fill="#D2E7FA"/>
<path d="M1107.53 37.7188C1193.96 65.9688 1393.24 48.5507 1438 11.6202V1.58234H0V34.7074C0 34.7074 108.172 52.9288 139.433 34.5331C170.694 16.1373 276.996 41.7539 294.249 52.2738C311.502 62.7937 403.171 64.9613 487.769 38.162C559.289 22.4572 637.025 19.4457 657.967 31.6961C678.909 43.9465 779.041 55.0048 860.418 37.7188C941.796 20.4329 1010.67 19.7113 1107.53 37.7188Z" fill="white"/>
<path d="M1107.53 37.7188C1193.96 65.9688 1393.24 48.5507 1438 11.6202V1.58234H0V39.5488C0 39.5488 108.172 52.9288 139.433 34.5331C170.694 16.1373 276.996 41.7539 294.249 52.2738C311.502 62.7937 403.171 64.9613 487.769 38.162C559.289 22.4572 637.025 19.4457 657.967 31.6961C678.909 43.9465 779.041 55.0048 860.418 37.7188C941.796 20.4329 1010.67 19.7113 1107.53 37.7188Z" fill="#D2E7FA"/>
</g>
</svg>
